<?xml version="1.0" standalone="no"?>
<!DOCTYPE svg PUBLIC "-//W3C//DTD SVG 20010904//EN"
 "http://www.w3.org/TR/2001/REC-SVG-20010904/DTD/svg10.dtd">
<svg version="1.0" xmlns="http://www.w3.org/2000/svg"
 width="225.000000pt" height="225.000000pt" viewBox="0 0 225.000000 225.000000"
 preserveAspectRatio="xMidYMid meet">
<metadata>
Created by potrace 1.16, written by Peter Selinger 2001-2019
</metadata>
<g transform="translate(0.000000,225.000000) scale(0.100000,-0.100000)"
fill="#000000" stroke="none">
<path d="M1071 1985 c-17 -31 -79 -108 -137 -172 -160 -177 -221 -294 -231
-443 -4 -54 -1 -92 11 -132 32 -112 129 -213 234 -244 50 -15 57 -15 100 1 56
22 117 76 145 129 16 31 21 58 21 111 0 69 1 71 31 85 35 17 43 53 25 113 -10
33 -15 38 -38 35 -25 -3 -27 -6 -25 -45 2 -57 -15 -56 -47 3 -41 79 -104 103
-168 64 -83 -51 -82 -200 2 -255 17 -12 41 -16 73 -13 46 3 48 2 51 -25 3 -21
-5 -36 -31 -62 -64 -64 -117 -59 -194 20 -82 84 -104 196 -64 325 22 70 62
140 163 281 37 53 74 112 83 131 13 32 36 148 29 148 -1 0 -16 -25 -33 -55z"/>
<path d="M1135 1990 c8 -73 40 -140 119 -251 135 -188 171 -278 164 -415 -4
-70 -10 -94 -41 -156 -20 -42 -58 -96 -87 -125 -29 -29 -49 -53 -46 -53 28 0
146 68 190 110 92 87 123 199 92 332 -30 128 -101 243 -253 409 -43 48 -94
113 -112 145 l-32 59 6 -55z"/>
<path d="M1052 1798 c-40 -43 -62 -96 -62 -153 0 -38 5 -52 28 -75 43 -43 91
-48 155 -16 49 24 53 25 65 8 22 -27 52 -102 63 -153 28 -131 -66 -325 -200
-411 l-45 -28 45 0 c24 0 62 9 84 19 54 25 140 118 173 188 24 53 27 69 27
173 0 106 -3 120 -31 187 -36 82 -105 189 -162 251 -51 55 -93 58 -140 10z"/>
<path d="M528 788 c7 -7 12 -42 12 -88 0 -46 -5 -81 -12 -88 -9 -9 -4 -12 23
-11 18 0 28 3 22 6 -8 2 -13 22 -13 44 0 56 30 53 61 -6 23 -43 26 -45 69 -45
44 0 45 1 45 33 0 31 2 32 40 32 38 0 40 -1 40 -32 0 -30 3 -33 30 -33 17 0
25 4 18 8 -6 4 -24 49 -39 100 -15 50 -33 92 -39 92 -7 0 -28 -42 -47 -92 -20
-53 -41 -94 -50 -96 -8 -2 -27 15 -42 38 l-26 40 21 30 c21 28 21 30 5 54 -14
23 -23 26 -73 26 -44 0 -54 -3 -45 -12z"/>
<path d="M1578 790 c-54 -32 -39 -190 18 -190 7 0 26 -13 42 -29 21 -21 36
-28 51 -24 32 8 35 22 5 20 -15 -1 -31 5 -37 15 -9 13 -6 20 13 36 34 28 40
116 10 155 -23 29 -68 36 -102 17z m82 -19 c5 -11 10 -43 10 -71 0 -63 -13
-90 -45 -90 -33 0 -55 36 -55 90 0 25 7 56 16 68 19 27 60 29 74 3z"/>
</g>
</svg>
